<svg width="32" height="32" viewBox="0 0 32 32" fill="none" xmlns="http://www.w3.org/2000/svg">
<rect width="32" height="32" rx="6" fill="#0066FF"/>
<path d="M21.5 6.5L18.5 9.5C18.2 9.8 18.2 10.3 18.5 10.6L20 12.1C20.3 12.4 20.8 12.4 21.1 12.1L23.5 9.7C24 9.2 24.9 9.5 24.9 10.2V16.8C24.9 17.5 24 17.8 23.5 17.3L16.5 10.3L12 5.8C9.2 3 4.5 5 4.5 9V17C4.5 21 9.2 23 12 20.2L15 17.2C15.3 16.9 15.3 16.4 15 16.1L13.5 14.6C13.2 14.3 12.7 14.3 12.4 14.6L10 17C9.5 17.5 8.6 17.2 8.6 16.5V10.2C8.6 9.5 9.5 9.2 10 9.7L17 16.7L21.5 21.2C24.3 24 29 22 29 18V10C29 6 24.3 4 21.5 6.5Z" fill="white"/>
</svg>
